<?xml version="1.0" encoding="UTF-8" standalone="no"?>
<!-- Created with Inkscape (http://www.inkscape.org/) -->

<svg
   width="640"
   height="447.91266"
   viewBox="0 0 169.33332 118.51023"
   version="1.1"
   id="svg1"
   xml:space="preserve"
   xmlns="http://www.w3.org/2000/svg"
   xmlns:svg="http://www.w3.org/2000/svg"><defs
     id="defs1" /><g
     id="layer1"
     transform="matrix(1.3382303,0,0,1.3382303,-11.952264,-34.915187)"><g
       id="g4"
       transform="matrix(1.0141153,0,0,1.0141153,4.9994843,10.677008)"><g
         id="g6"
         style="display:none"><path
           fill="#e0e0e0"
           d="m 84.3233,17.963823 -3.124435,12.486634 c -1.307098,0.419772 -2.580743,0.93734 -3.810141,1.548318 l -10.993536,-6.608294 -7.81936,7.824877 6.608294,11.026726 c -0.619285,1.222059 -1.144726,2.48849 -1.576115,3.788028 l -12.464522,3.113356 v 11.059916 l 12.486635,3.118895 c 0.265438,0.829545 0.636006,1.614781 0.978776,2.411053 h 3.124433 c 2.986175,-3.782489 6.757608,-6.890327 11.059916,-8.825808 -1.34304,-6.949998 3.981355,-13.401751 11.059905,-13.401751 7.07856,0 12.40295,6.451753 11.05991,13.401751 4.42221,1.878802 14.26728,8.825808 14.26728,8.825808 0.35385,-0.801748 0.73006,-1.587193 1.00637,-2.42211 l 12.45346,-3.107838 V 51.143468 l -12.48112,-3.124433 c -0.42116,-1.303004 -0.9387,-2.572864 -1.54831,-3.799064 l 6.60275,-11.004613 -7.81934,-7.81936 -11.02674,6.608294 C 101.14366,31.385868 99.8757,30.859105 98.57398,30.428344 L 95.47169,17.963823 H 84.41177 Z"
           id="path1-76"
           style="fill:none;stroke:#000000;stroke-width:5.52995;stroke-opacity:1" /><path
           fill="#e0e0e0"
           d="m 95.47142,95.377502 3.12443,-12.486625 c 1.3071,-0.419772 2.58074,-0.93734 3.81014,-1.548318 l 10.99354,6.608293 7.81935,-7.824876 -6.60829,-11.026726 c 0.61929,-1.222059 1.14473,-2.48849 1.57612,-3.788028 l 12.46452,-3.113356 V 51.137951 l -12.48664,-3.118895 c -0.26544,-0.829545 -0.636,-1.614781 -0.97877,-2.411053 h -3.12444 c -2.98617,3.782489 -6.7576,6.890327 -11.05991,8.825808 1.34304,6.949998 -3.98135,13.401751 -11.05991,13.401751 -7.07855,0 -12.402944,-6.451753 -11.059904,-13.401751 -4.422212,-1.878802 -14.267284,-8.825808 -14.267284,-8.825808 -0.353848,0.801748 -0.730058,1.587193 -1.006365,2.42211 L 51.15454,51.137951 V 62.197867 L 63.635659,65.3223 c 0.421165,1.303003 0.938699,2.572863 1.548317,3.799063 l -6.602756,11.004613 7.819339,7.819356 11.026747,-6.60829 c 1.223752,0.618424 2.491706,1.145187 3.79342,1.575948 l 3.102304,12.464512 h 11.05991 z"
           id="path2-1"
           style="fill:none;stroke:#000000;stroke-width:5.52995;stroke-opacity:1" /></g><path
         fill="#e0e0e0"
         d="m 84.323301,17.963823 -3.124433,12.486634 c -1.307098,0.419772 -2.580743,0.93734 -3.810141,1.548318 l -10.993536,-6.608294 -7.81936,7.824877 6.608294,11.026726 c -0.619285,1.222059 -1.144726,2.48849 -1.576115,3.788028 l -12.464522,3.113356 v 11.059916 l 12.486635,3.118895 c 0.265438,0.829545 0.636006,1.614781 0.978776,2.411053 h 3.124433 c 2.986175,-3.782489 6.757608,-6.890327 11.059916,-8.825808 -1.34304,-6.949998 3.981351,-13.401751 11.059906,-13.401751 7.078555,0 12.402946,6.451753 11.059906,13.401751 4.42221,1.878802 14.26728,8.825808 14.26728,8.825808 0.35385,-0.801748 0.73006,-1.587193 1.00637,-2.42211 l 12.45346,-3.107838 V 51.143468 l -12.48112,-3.124433 c -0.42116,-1.303004 -0.9387,-2.572864 -1.54831,-3.799064 l 6.60275,-11.004613 -7.81934,-7.81936 -11.02674,6.608294 c -1.22375,-0.618424 -2.491702,-1.145187 -3.793422,-1.575948 L 95.471689,17.963823 H 84.411773 Z"
         id="path1"
         style="display:inline;stroke-width:5.52995" /><path
         fill="#e0e0e0"
         d="m 95.471418,95.377506 3.12443,-12.486629 c 1.3071,-0.419772 2.580742,-0.93734 3.810142,-1.548318 l 10.99354,6.608294 7.81935,-7.824877 -6.60829,-11.026726 c 0.61929,-1.222059 1.14473,-2.48849 1.57612,-3.788028 l 12.46452,-3.113356 V 51.137951 l -12.48664,-3.118895 c -0.26544,-0.829545 -0.636,-1.614781 -0.97877,-2.411053 h -3.12444 c -2.98617,3.782489 -6.7576,6.890327 -11.05991,8.825808 1.34304,6.949998 -3.981351,13.401751 -11.059905,13.401751 -7.078555,0 -12.402946,-6.451753 -11.059906,-13.401751 -4.422212,-1.878802 -14.267284,-8.825808 -14.267284,-8.825808 -0.353848,0.801748 -0.730058,1.587193 -1.006365,2.42211 L 51.154543,51.137951 V 62.197867 L 63.635662,65.3223 c 0.421165,1.303003 0.938699,2.572863 1.548317,3.799063 l -6.602756,11.004613 7.819339,7.81936 11.026747,-6.608294 c 1.223752,0.618424 2.491706,1.145187 3.79342,1.575948 l 3.1023,12.464516 h 11.059917 z"
         id="path2"
         style="display:inline;stroke-width:5.52995" /></g><path
       id="path1-7"
       style="fill:#e0e0e0;fill-opacity:1;stroke-width:6.45113"
       d="M 45.07927,26.175349 C 26.182663,27.428224 10.96741,42.170118 9.1181202,61.017702 7.2688303,79.865287 19.328608,97.283358 37.621327,102.18518 L 34.281996,114.64799 64.216603,102.6327 44.300506,77.260085 40.960658,89.722373 C 26.824463,85.935756 18.66325,71.163689 22.982281,57.180984 27.301313,43.198278 42.37172,35.602083 56.180917,40.447346 l 9.897587,-9.682613 C 59.652425,27.283072 52.371921,25.691918 45.07927,26.175349 Z" /></g></svg>
